<svg xmlns="http://www.w3.org/2000/svg" viewBox="0 0 32 32">
  <ellipse cx="16" cy="30" rx="11" ry="1.5" fill="#000" opacity="0.12"/>
  <rect x="6" y="3.5" width="20" height="26" rx="0.8" fill="#4a4a50"/>
  <g stroke="#5f5f66" stroke-width="1">
    <path d="M6 7.5h20M6 11.5h20M6 15.5h20M6 19.5h20"/>
    <path d="M11 3.5v4M16 3.5v4M21 3.5v4"/>
    <path d="M8.5 7.5v4M13.5 7.5v4M18.5 7.5v4M23.5 7.5v4"/>
    <path d="M11 11.5v4M16 11.5v4M21 11.5v4"/>
    <path d="M8.5 15.5v4M13.5 15.5v4M18.5 15.5v4M23.5 15.5v4"/>
  </g>
  <rect x="6" y="23" width="20" height="6.5" fill="#c8c8cc"/>
  <rect x="13.5" y="24" width="5" height="5.5" rx="0.6" fill="#9a9aa0"/>
  <rect x="8" y="24.5" width="3.6" height="3" fill="#aeaeb4"/>
  <rect x="20.4" y="24.5" width="3.6" height="3" fill="#aeaeb4"/>
</svg>
