<svg xmlns="http://www.w3.org/2000/svg" viewBox="0 0 32 32">
  <!-- Japanese castle keep: three tiers, thin upturned eaves, gold shachihoko -->
  <ellipse cx="16" cy="30" rx="12.5" ry="1.6" fill="#000" opacity="0.12"/>
  <path d="M5.5 29.6 8.5 26H23.5L26.5 29.6Z" fill="#a8a294"/>
  <g stroke="#918b7c" stroke-width="0.5">
    <path d="M8.9 27.4h14.2"/>
    <path d="M7.6 28.6h16.8"/>
  </g>
  <rect x="9.5" y="21.4" width="13" height="4.6" fill="#f8f6f0"/>
  <rect x="14" y="22.2" width="4" height="3.8" fill="#5c4328"/>
  <path d="M6.2 21.4 C10.5 22.4 21.5 22.4 25.8 21.4 L23 18.8H9Z" fill="#4f5a66"/>
  <rect x="11" y="14.6" width="10" height="4.2" fill="#f8f6f0"/>
  <g fill="#5c6670">
    <rect x="12.4" y="15.5" width="2" height="2.2"/>
    <rect x="15" y="15.5" width="2" height="2.2"/>
    <rect x="17.6" y="15.5" width="2" height="2.2"/>
  </g>
  <path d="M8.5 14.6 C12 15.5 20 15.5 23.5 14.6 L21 12H11Z" fill="#4f5a66"/>
  <rect x="12" y="8" width="8" height="4" fill="#f8f6f0"/>
  <g fill="#5c6670">
    <rect x="13.4" y="8.9" width="1.9" height="2.1"/>
    <rect x="16.7" y="8.9" width="1.9" height="2.1"/>
  </g>
  <path d="M10 8 C13 8.9 19 8.9 22 8 L19.2 5.5H12.8Z" fill="#4f5a66"/>
  <rect x="12.4" y="4.9" width="7.2" height="1" rx="0.5" fill="#3f4954"/>
  <g fill="#d8b040">
    <path d="M12.6 4.9 C12.4 4 12.8 3.3 13.5 3 C13.6 3.7 13.4 4.4 13.1 4.9 Z"/>
    <path d="M19.4 4.9 C19.6 4 19.2 3.3 18.5 3 C18.4 3.7 18.6 4.4 18.9 4.9 Z"/>
  </g>
</svg>
