<svg xmlns="http://www.w3.org/2000/svg" viewBox="0 0 32 32">
  <!-- palm: curved trunk, coconuts, five fronds -->
  <ellipse cx="15.5" cy="29.6" rx="7" ry="1.7" fill="#1b3a12" opacity="0.16"/>
  <path d="M14 29.2c-.5-5.2.3-10.2 2.8-14.8l2.2.9c-2.2 4.3-2.9 8.9-2.4 13.6Z" fill="#b9884d"/>
  <path d="M15.3 25.6l2.6.5M15.5 22l2.5.6M16.2 18.4l2.3.7" stroke="#9c7040" stroke-width="0.8" stroke-linecap="round" fill="none"/>
  <g fill="#3d9a4f">
    <path d="M17.8 13.6C13.4 11.2 9.4 11.6 6 15c3.8 2 8 1.6 11.8-1.4Z"/>
    <path d="M17.8 13.6C13.6 10.9 12.4 7.3 13.8 3.4c3.3 2.6 4.8 6.2 4 10.2Z"/>
  </g>
  <g fill="#4aa85c">
    <path d="M17.8 13.6C15 9.8 15.4 6 18.4 2.6c2.4 3.6 2.2 7.4-.6 11Z"/>
    <path d="M17.8 13.6C21.6 10.6 25.4 10.4 29 13c-3.4 2.7-7.2 2.9-11.2.6Z"/>
    <path d="M17.8 13.6C21 12.4 24 13 26.8 15.8c-3.2 1.4-6.2 1-9-1.2Z"/>
  </g>
  <circle cx="16.4" cy="13.9" r="1.6" fill="#c9822e"/>
  <circle cx="19.1" cy="14.4" r="1.5" fill="#a06a3c"/>
</svg>
