<svg xmlns="http://www.w3.org/2000/svg" viewBox="0 0 32 32">
  <!-- Japanese estate: tiled roof, plastered walls, shoji windows, stone base -->
  <ellipse cx="16" cy="30" rx="12" ry="1.6" fill="#000" opacity="0.12"/>
  <path d="M2.8 13 C9 10.6 11 5.6 16 5.6 C21 5.6 23 10.6 29.2 13 Z" fill="#4a5560"/>
  <rect x="13.8" y="4.2" width="4.4" height="1.6" rx="0.8" fill="#3a434c"/>
  <rect x="5.5" y="13" width="21" height="13" fill="#f6f3ea"/>
  <g fill="#7a5c3c">
    <rect x="5.5" y="13" width="1.4" height="13"/>
    <rect x="25.1" y="13" width="1.4" height="13"/>
    <rect x="5.5" y="13" width="21" height="1.2"/>
  </g>
  <g fill="#f0e8d0" stroke="#7a5c3c" stroke-width="0.6">
    <rect x="8.5" y="16" width="5" height="5"/>
    <rect x="18.5" y="16" width="5" height="5"/>
  </g>
  <g stroke="#7a5c3c" stroke-width="0.5">
    <path d="M11 16v5M8.5 18.5h5"/>
    <path d="M21 16v5M18.5 18.5h5"/>
  </g>
  <rect x="13.6" y="17.5" width="4.8" height="8.5" fill="#5c4328"/>
  <path d="M16 17.5v8.5" stroke="#3d2c1a" stroke-width="0.6"/>
  <rect x="4.5" y="26" width="23" height="3.5" fill="#b8b4a8"/>
</svg>
