<svg xmlns="http://www.w3.org/2000/svg" viewBox="0 0 32 32">
  <!-- western manor: slate mansard roof, cream walls, columned entrance -->
  <ellipse cx="16" cy="30" rx="12" ry="1.6" fill="#000" opacity="0.12"/>
  <rect x="8" y="2.8" width="16" height="2.6" rx="1.1" fill="#55606e"/>
  <path d="M5.5 10.5 8 5h16l2.5 5.5Z" fill="#616d7c"/>
  <rect x="5" y="10.5" width="22" height="1.6" fill="#4a5560"/>
  <rect x="6" y="12.1" width="20" height="14.4" fill="#f4ecdc"/>
  <g fill="#bfe6f0" stroke="#ffffff" stroke-width="0.8">
    <rect x="8" y="14" width="3.6" height="5.5"/>
    <rect x="20.4" y="14" width="3.6" height="5.5"/>
    <rect x="8" y="21" width="3.6" height="4.5"/>
    <rect x="20.4" y="21" width="3.6" height="4.5"/>
  </g>
  <path d="M12.4 14.5 16 12.4l3.6 2.1Z" fill="#d8ccb4"/>
  <rect x="12.8" y="14.5" width="1.2" height="12" fill="#ffffff"/>
  <rect x="18" y="14.5" width="1.2" height="12" fill="#ffffff"/>
  <rect x="14.4" y="17" width="3.2" height="9.5" rx="0.6" fill="#7a5c3c"/>
  <rect x="4.5" y="26.5" width="23" height="3" fill="#ded4c0"/>
</svg>
